<svg width="64" height="64" xmlns="http://www.w3.org/2000/svg">

 <g>
  <title>background</title>
  <rect fill="none" id="canvas_background" height="66" width="66" y="-1" x="-1"/>
 </g>
 <g>
  <title>Layer 1</title>
  <g stroke="null" id="svg_1">
   <g stroke="null" id="_x33__6_">
    <g stroke="null" id="svg_2">
     <path stroke="null" fill="#43b581" stroke-width="0" id="svg_3" d="m60.7833,56.838l-57.58418,0c-1.76589,0 -3.19912,1.59149 -3.19912,3.55238c0,1.961 1.43323,3.55249 3.19912,3.55249l57.58418,0c1.76589,0 3.19912,-1.59149 3.19912,-3.55261c0,-1.96077 -1.43323,-3.55226 -3.19912,-3.55226zm-57.58418,-49.73325l57.58418,0c1.76589,0 3.19912,-1.59137 3.19912,-3.55238c0,-1.961 -1.43323,-3.55238 -3.19912,-3.55238l-57.58418,0c-1.76589,0.00012 -3.19912,1.59149 -3.19912,3.55249c0,1.96089 1.43323,3.55226 3.19912,3.55226zm57.58418,21.31425l-57.58418,0c-1.76589,0 -3.19912,1.59149 -3.19912,3.55249s1.43323,3.55238 3.19912,3.55238l57.58418,0c1.76589,0 3.19912,-1.59149 3.19912,-3.55238s-1.43323,-3.55249 -3.19912,-3.55249z"/>
    </g>
   </g>
  </g>
  <g id="svg_4"/>
  <g id="svg_5"/>
  <g id="svg_6"/>
  <g id="svg_7"/>
  <g id="svg_8"/>
  <g id="svg_9"/>
  <g id="svg_10"/>
  <g id="svg_11"/>
  <g id="svg_12"/>
  <g id="svg_13"/>
  <g id="svg_14"/>
  <g id="svg_15"/>
  <g id="svg_16"/>
  <g id="svg_17"/>
  <g id="svg_18"/>
 </g>
</svg>