<svg width="512" height="512" xmlns="http://www.w3.org/2000/svg">

 <g>
  <title>background</title>
  <rect fill="none" id="canvas_background" height="514" width="514" y="-1" x="-1"/>
 </g>
 <g>
  <title>Layer 1</title>
  <g stroke="null" id="svg_1">
   <g stroke="null" id="_x33__6_">
    <g stroke="null" id="svg_2">
     <path stroke="null" fill="#43b581" stroke-width="0" id="svg_3" d="m485.35168,454.32551l-458.92794,0c-14.07362,0 -25.496,12.71696 -25.496,28.38566c0,15.66963 11.42237,28.38659 25.496,28.38659l458.92794,0c14.07362,0 25.496,-12.71696 25.496,-28.38752c0,-15.66777 -11.42237,-28.38473 -25.496,-28.38473zm-458.92794,-397.39927l458.92794,0c14.07362,0 25.496,-12.71603 25.496,-28.38566c0,-15.66963 -11.42237,-28.38566 -25.496,-28.38566l-458.92794,0c-14.07362,0.00093 -25.496,12.71696 -25.496,28.38659c0,15.6687 11.42237,28.38473 25.496,28.38473zm458.92794,170.31397l-458.92794,0c-14.07362,0 -25.496,12.71696 -25.496,28.38659s11.42237,28.38566 25.496,28.38566l458.92794,0c14.07362,0 25.496,-12.71696 25.496,-28.38566s-11.42237,-28.38659 -25.496,-28.38659z"/>
    </g>
   </g>
  </g>
  <g id="svg_4"/>
  <g id="svg_5"/>
  <g id="svg_6"/>
  <g id="svg_7"/>
  <g id="svg_8"/>
  <g id="svg_9"/>
  <g id="svg_10"/>
  <g id="svg_11"/>
  <g id="svg_12"/>
  <g id="svg_13"/>
  <g id="svg_14"/>
  <g id="svg_15"/>
  <g id="svg_16"/>
  <g id="svg_17"/>
  <g id="svg_18"/>
 </g>
</svg>